PathFileType	4	(X/Y/Z)	C:/Users/beibeiliu/ov580/test_trc/User3\sequence.34_training_dense_right.trc
DataRate	CameraRate	NumFrames	NumMarkers	Units	OrigDataRate	OrigDataStartFrame	OrigNumFrames
120	120	22	19	mm	120	51	126
Frame#	Time	ThumbCMC			ThumbMCP			ThumbIP			ThumbTip			IndexMCP			IndexPIP			IndexTip			MiddleMCP			MiddlePIP			MiddleTip			RingMCP			RingPIP			RingTip			PinkyMCP			PinkyPIP			PinkyTip			BackHand1			BackHand2			BackHand3	
		X0	Y0	Z0	X1	Y1	Z1	X2	Y2	Z2	X3	Y3	Z3	X4	Y4	Z4	X5	Y5	Z5	X6	Y6	Z6	X7	Y7	Z7	X8	Y8	Z8	X9	Y9	Z9	X10	Y10	Z10	X11	Y11	Z11	X12	Y12	Z12	X13	Y13	Z13	X14	Y14	Z14	X15	Y15	Z15	X16	Y16	Z16	X17	Y17	Z17	X18	Y18	Z18	
50	0.416667	174.608	8.48401	5.31032	184.034	20.2735	-20.1591	185.369	28.1688	-45.9604	182.483	35.1426	-70.5669	150.111	1.88686	-68.4085	143.929	21.665	-88.3118	134.359	43.2218	-99.3955	127.86	-5.01893	-70.9379	122.17	12.2102	-89.4067	107.795	38.0591	-106.282	106.406	-13.2001	-57.147	99.887	-1.64921	-78.1657	87.1007	20.0506	-98.2465	92.1951	-16.4612	-37.4285	82.4976	-13.5553	-58.3434	66.608	-4.54232	-74.7427	124.302	-30.9146	-8.53455	127.836	-32.65	21.4794	154.913	-23.2765	4.64441	
51	0.425	179.718	10.1025	12.0797	184.887	19.2704	-18.7817	185.271	29.1908	-43.1262	182.026	36.3835	-67.0567	153.435	-0.332197	-62.4617	147.275	19.2781	-82.2305	141.025	45.0137	-96.1473	132.832	-7.17031	-63.5224	126.916	11.8871	-85.7746	117.827	42.3705	-104.691	110.766	-13.1439	-52.9925	106.555	1.94347	-79.058	93.3369	21.7331	-95.329	97.0566	-16.706	-36.8593	84.5601	-12.4224	-53.0849	74.599	-1.58641	-77.5221	127.872	-31.407	-5.11654	128.204	-32.6818	26.8596	161.513	-24.0591	6.6036	
52	0.433333	181.888	8.7317	12.864	189.376	21.5425	-15.3476	186.166	29.2528	-42.5983	185.025	38.249	-63.2546	155.086	2.2165	-63.1608	152.634	22.6472	-83.2535	139.085	46.5815	-94.3775	133.947	-6.77057	-64.659	131.57	12.7153	-84.2945	118.071	40.5971	-101.095	116.608	-12.1268	-54.2735	108.67	0.518053	-75.2323	97.1051	22.0313	-93.591	100.936	-16.742	-33.4824	90.153	-12.2568	-54.433	79.8892	-1.42997	-74.258	128.422	-32.227	-0.945	134.991	-30.4476	30.9599	161.205	-22.9952	8.87684	
53	0.441667	182.213	11.3345	17.0068	191.953	24.2646	-11.0095	189.758	33.3376	-36.8677	184.212	40.7587	-63.1536	157.681	2.8961	-56.9949	151.431	21.0221	-76.9197	141.554	44.8034	-88.7923	138.001	-4.04076	-59.5578	128.526	16.5544	-83.5756	118.564	41.8463	-97.4692	114.837	-9.59919	-51.1147	107.8	2.46406	-70.6452	101.922	26.3909	-90.6237	99.6837	-14.4411	-28.2252	87.7942	-10.0367	-48.0041	82.5526	0.0476956	-69.9129	130.336	-29.7432	4.92076	135.294	-29.0686	32.9825	165.706	-21.6169	11.3055	
54	0.45	179.976	11.8314	20.9083	188.529	23.7217	-5.27558	188.685	32.2158	-36.1972	184.133	40.895	-54.9747	156.405	4.34515	-56.8865	152.247	25.421	-77.1187	143.456	46.3665	-86.015	136.932	-3.41814	-57.6002	129.233	17.2251	-80.2757	122.895	42.6534	-93.6707	118.28	-8.0235	-47.4355	106.801	2.62129	-66.3368	100.441	23.5023	-84.0621	100.69	-14.5113	-27.9888	90.3313	-8.37787	-47.7959	79.4456	4.21157	-69.3586	133.063	-27.3855	5.07497	134.889	-28.4158	37.3592	166.114	-21.4209	12.3051	
55	0.458333	179.019	12.0901	23.3427	187.062	22.4525	-5.36484	189.157	33.0265	-30.6138	180.208	39.5759	-54.7186	158.765	4.93985	-52.1065	150.705	23.8533	-71.9821	142.892	45.8436	-82.0005	136.38	-3.93557	-52.9683	129.935	15.298	-74.9242	118.609	44.9906	-91.0815	115.752	-10.2102	-40.0538	111.14	4.84012	-66.1632	96.851	23.9183	-81.4729	102.269	-13.8805	-21.534	88.4758	-8.88727	-43.6618	83.6685	1.58357	-64.2546	131.746	-28.8347	8.95264	135.497	-27.0824	41.335	168	-19.1967	16.3867	
56	0.466667	178.899	10.5812	25.3879	187.055	23.0704	-2.8318	186.485	30.2239	-30.1168	180.581	38.3178	-52.0565	155.526	2.45868	-49.6366	152.924	20.658	-68.4026	142.114	46.4207	-80.7544	135.538	-6.42072	-49.6605	127.202	11.0595	-70.4702	118.803	40.7653	-87.5144	118.506	-11.2819	-37.6019	105.488	0.395656	-61.3479	95.2622	20.8992	-76.8319	103.272	-15.3886	-20.1789	88.1644	-11.553	-39.6982	78.3352	1.5121	-59.635	130.156	-29.0394	14.6094	135.416	-29.5783	43.1207	163.671	-20.9709	19.6647	
57	0.475	178.251	10.5166	28.0562	186.497	21.2361	-3.33098	186.841	30.353	-32.5432	178.403	36.5397	-48.0902	157.245	0.862526	-46.7272	149.127	19.3573	-68.5788	138.267	45.0581	-78.4944	131.918	-7.46389	-47.8518	126.042	12.1094	-72.0393	115.581	38.7616	-85.4562	113.874	-12.8747	-35.3141	105.825	-1.19889	-58.762	98.5988	21.3258	-77.5848	97.7842	-18.2288	-19.6867	91.5093	-12.5297	-39.1361	79.4066	0.271629	-62.1758	132.337	-30.0027	15.377	132.737	-30.6212	42.0397	161.673	-22.2196	21.6939	
58	0.483333	176.173	7.79311	26.3824	185.836	20.6474	0.7968	188.307	28.8987	-27.4838	176.326	34.3724	-49.5916	153.973	-1.13213	-45.3389	150.447	19.9274	-68.8269	140.309	42.9433	-77.9314	132.207	-9.94344	-45.9013	121.891	10.2916	-71.3057	116.496	40.5227	-87.3048	117.164	-13.9653	-36.5981	102.913	-1.06702	-58.8255	96.6875	17.8856	-75.6309	97.1668	-19.8581	-17.6258	87.7377	-14.7391	-38.8382	77.1949	-4.17706	-59.5686	127.607	-30.9544	17.7272	131.98	-32.057	47.9153	161.405	-23.878	24.4531	
59	0.491667	174.865	6.2108	27.4412	188.196	18.57	-0.0360077	182.183	24.4322	-28.9824	176.612	32.5713	-48.4673	157.081	-1.9735	-46.0786	148.667	16.144	-66.9004	136.44	40.0343	-78.0347	131.331	-10.0183	-49.2941	123.813	8.2468	-71.5652	115.931	34.8997	-85.8251	113.11	-16.8006	-37.2398	102.821	-4.47159	-59.4247	93.5446	15.6772	-75.355	96.6461	-21.7773	-15.6033	85.71	-17.4099	-36.8791	79.4019	-5.55769	-56.9167	127.982	-32.7536	12.5836	131.835	-34.1106	46.9424	160.298	-26.7081	25.04	
60	0.5	179.098	5.98921	28.5791	184.23	15.0549	0.0858997	185.977	23.6288	-28.9353	179.158	31.6886	-51.9077	154.234	-4.4861	-49.2678	149.715	17.9598	-69.9734	140.375	42.1489	-80.2244	134.967	-13.105	-47.313	129.187	6.54247	-70.5774	113.603	37.5582	-87.7033	112.387	-17.2468	-40.4194	104.338	-5.09008	-59.2441	94.3718	15.7882	-77.5931	95.8286	-22.3331	-16.2227	90.0775	-16.6372	-41.487	76.4397	-7.21163	-57.3023	127.117	-35.8939	13.9225	131.401	-35.9365	44.8636	160.71	-28.697	20.7406	
61	0.508333	178.96	2.98865	24.4477	190.318	16.0031	-0.119444	189.063	23.3183	-31.1044	178.082	28.2805	-50.0141	158.55	-7.38753	-46.1589	148.22	13.4615	-69.9196	144.091	37.2152	-79.2763	132.874	-14.7581	-46.6391	130.389	6.26636	-72.9708	121.104	34.9865	-87.6291	117.856	-18.3014	-39.6195	109.038	-8.35403	-59.7427	97.4577	12.0753	-78.1209	100.613	-23.8491	-21.4377	89.535	-19.3451	-38.7067	80.9314	-5.95974	-64.1086	127.755	-35.6747	12.0616	131.964	-36.6944	42.9424	164.842	-28.5959	20.915	
62	0.516667	182.478	0.428934	24.9906	189.619	12.2063	-1.63528	189.106	18.9558	-34.2643	182.183	25.7723	-53.1597	157.827	-10.4659	-46.3809	151.312	7.9548	-67.8352	146.21	35.5801	-81.1276	135.38	-16.0974	-52.9033	132.895	3.10832	-72.641	120.323	33.4709	-88.6653	116.993	-21.8977	-37.9238	111.832	-8.4039	-64.4235	99.6395	13.2468	-82.104	99.7386	-26.3592	-18.8007	92.5719	-20.7033	-42.9371	85.6485	-7.0086	-64.0826	131.683	-38.1022	14.342	132.971	-39.7861	45.1111	163.919	-30.4573	19.5059	
63	0.525	185.238	-2.2053	22.8411	191.766	8.20064	-3.72103	193.426	15.6851	-33.1152	184.871	22.787	-56.7826	159.835	-13.3958	-47.6074	159.134	8.23012	-71.809	145.459	32.1117	-80.9706	138.201	-19.581	-50.1735	134.621	-2.0789	-71.2327	121.785	29.9024	-90.4143	119.433	-24.7509	-37.6158	111.491	-12.4396	-61.409	102.926	7.60165	-79.0331	102.854	-28.6948	-19.3323	97.6595	-24.1505	-40.2518	86.4265	-13.0156	-62.3877	133.717	-43.1042	10.8789	137.192	-41.3046	44.853	168.772	-32.6767	18.9463	
64	0.533333	187.261	-6.6312	29.1901	196.994	2.54154	-4.75499	198.257	11.3063	-30.0294	187.872	15.5375	-54.6947	168.748	-18.5384	-46.7721	162.565	4.49578	-71.9418	150.858	27.2336	-81.0333	145.858	-24.0685	-50.5687	136.137	-6.42015	-71.8465	130.434	22.687	-89.4476	124.51	-29.4968	-38.4531	113.881	-16.319	-64.7375	109.374	1.366	-79.4749	108.446	-33.2737	-20.6814	98.6921	-28.773	-42.6876	87.3939	-18.6505	-61.6078	135.465	-47.1405	11.1655	139.571	-47.1649	44.1519	170.068	-38.2349	22.118	
65	0.541667	192.842	-12.4922	28.9878	198.525	-3.6349	0.267605	202.171	3.3021	-27.961	193.58	9.77064	-49.6554	171.881	-24.6722	-44.6339	162.839	-4.06998	-68.7402	157.016	18.0403	-79.3904	145.393	-30.0886	-51.125	141.604	-12.3565	-69.9739	137.128	16.0875	-86.9306	131.316	-33.4953	-39.7035	124.024	-21.822	-61.8933	116.561	-1.19361	-80.8812	112.847	-37.8114	-21.1469	101.158	-31.9335	-42.9948	95.2467	-21.8661	-60.3738	140.337	-51.6231	15.8991	145.067	-49.8276	46.7543	172.76	-46.4957	21.7566	
66	0.55	199.623	-16.5553	31.2628	205.693	-6.90664	4.23347	208.484	-1.17888	-28.1625	199.097	4.91434	-47.5863	175.052	-26.8534	-44.3382	173.964	-9.71394	-65.4647	164.593	17.7971	-79.1345	154	-34.1915	-45.0932	148.763	-15.3891	-68.4094	140.836	15.3709	-86.0641	134.658	-37.1859	-38.9265	127.513	-24.0317	-61.5239	122.78	-5.38705	-77.4604	118.342	-40.9047	-17.4743	110.036	-36.251	-36.2841	98.0489	-22.9961	-58.5893	143.39	-56.0826	15.2619	147.729	-53.0246	46.7549	178.875	-47.8924	27.1486	
67	0.558333	208.861	-18.2118	34.627	214.173	-8.89278	6.16267	213.024	-3.56979	-24.1988	209.761	4.65792	-44.6046	182.985	-28.7851	-41.1505	181.107	-9.04376	-63.1065	170.719	14.616	-75.2085	164.296	-32.2887	-45.896	156.584	-16.3801	-64.9848	149.783	11.5046	-82.1364	142.8	-39.2516	-31.0953	137.495	-26.7792	-55.0092	130.035	-6.14351	-73.7119	124.261	-41.5971	-13.2854	118.49	-36.2469	-38.9936	107.704	-25.5503	-55.6137	153.872	-55.9046	21.002	154.556	-55.9135	52.6358	189.351	-49.9168	27.046	
68	0.566667	215.764	-17.8058	38.0914	221.719	-9.03153	11.801	227.267	-0.83554	-20.5403	220.345	4.90744	-41.8639	192.205	-29.5444	-35.6444	187.237	-11.9996	-58.4311	183.423	13.9712	-71.3557	169.46	-33.9264	-43.5003	165.221	-16.3138	-61.6158	158.984	12.0243	-79.9722	150.059	-39.4625	-30.0341	147.193	-26.6562	-52.5546	140.043	-4.93366	-74.083	134.806	-42.0496	-12.3533	128.871	-37.6089	-31.3571	119.256	-25.0551	-56.1512	164.403	-56.136	23.7136	163.555	-56.0173	51.6358	193.181	-50.9288	30.7007	
69	0.575	217.087	-20.0949	37.2394	227.481	-10.3014	13.4416	231.297	-3.69961	-19.7168	226.493	4.23936	-37.5894	201.124	-28.0109	-38.0792	196.523	-10.6427	-58.052	190.292	13.0885	-70.2739	178.545	-35.601	-39.9931	174.862	-17.1758	-61.4653	163.008	11.0082	-78.4534	158.08	-40.4802	-27.2266	154.891	-27.8589	-50.4222	142.448	-6.98773	-70.8521	143.377	-42.9054	-13.1022	130.906	-39.1134	-29.9176	123.958	-27.3896	-51.2135	166.919	-57.6556	22.9271	173.319	-55.3674	55.8238	202.629	-48.6267	36.0858	
70	0.583333	219.485	-19.1843	40.8924	229.242	-9.95691	12.3808	236.803	-2.18194	-17.5047	230.371	4.17135	-39.0006	199.977	-28.4219	-38.0255	199.342	-10.0905	-57.8558	193.398	17.4878	-70.8395	177.698	-36.6095	-38.0812	179.036	-18.3898	-59.6677	167.576	9.03135	-76.9669	163.09	-39.4006	-27.0497	157.668	-28.8029	-50.6672	150.859	-7.99203	-70.9236	145.743	-43.684	-12.5516	134.876	-38.0067	-33.9831	130.5	-28.963	-51.6083	168.522	-55.925	22.6465	172.648	-55.2997	52.2492	203.098	-51.9164	34.4272	
71	0.591667	218.473	-19.4505	39.7728	231.99	-9.30074	14.4461	230.51	-2.88261	-17.0303	227.782	4.9938	-41.0328	200.748	-29.1505	-35.6962	194.296	-9.41446	-57.7232	192.886	13.1476	-69.3472	180.015	-33.8839	-40.4214	176.879	-17.8837	-60.134	169.201	14.332	-79.1257	160.448	-38.6381	-28.4754	151.659	-27.826	-49.2425	147.26	-5.71549	-72.5379	142.19	-41.7926	-8.72302	136.306	-39.1929	-30.7208	128.133	-27.9387	-49.7818	167.223	-57.6152	26.4805	171.886	-54.5481	57.9844	201.452	-48.3128	38.2406	
